<?xml version="1.0" standalone="no"?><!DOCTYPE svg PUBLIC "-//W3C//DTD SVG 1.1//EN" "http://www.w3.org/Graphics/SVG/1.1/DTD/svg11.dtd"><svg t="1628490092949" class="icon" viewBox="0 0 1024 1024" version="1.1" xmlns="http://www.w3.org/2000/svg" p-id="1348" xmlns:xlink="http://www.w3.org/1999/xlink" width="200" height="200"><defs><style type="text/css"></style></defs><path d="M979.2 1017.6H89.6c-44.8 0-83.2-38.4-83.2-83.2V51.2C6.4 32 25.6 12.8 44.8 12.8s38.4 19.2 38.4 38.4v889.6l896 6.4c19.2 0 38.4 19.2 38.4 38.4s-19.2 32-38.4 32z" p-id="1349" fill="#1296db"></path><path d="M928 422.4h-140.8c-12.8 0-25.6 6.4-32 19.2l-128 217.6-121.6-396.8c-6.4-19.2-25.6-32-51.2-25.6-6.4 6.4-19.2 12.8-25.6 19.2l-128 256h-128c-19.2 0-38.4 12.8-38.4 38.4s19.2 38.4 38.4 38.4h153.6c12.8 0 25.6-6.4 38.4-19.2L460.8 384l108.8 384c6.4 19.2 25.6 32 51.2 25.6 12.8 0 19.2-6.4 25.6-19.2l166.4-281.6h115.2c19.2 0 38.4-19.2 38.4-38.4s-19.2-32-38.4-32z" p-id="1350" fill="#1296db"></path></svg>