<?xml version="1.0" standalone="no"?><!DOCTYPE svg PUBLIC "-//W3C//DTD SVG 1.1//EN" "http://www.w3.org/Graphics/SVG/1.1/DTD/svg11.dtd"><svg t="1628478861381" class="icon" viewBox="0 0 1024 1024" version="1.1" xmlns="http://www.w3.org/2000/svg" p-id="2091" xmlns:xlink="http://www.w3.org/1999/xlink" width="200" height="200"><defs><style type="text/css"></style></defs><path d="M533.712 546.848m-454.384 0a454.384 454.384 0 1 0 908.768 0 454.384 454.384 0 1 0-908.768 0Z" fill="#80CFF4" p-id="2092"></path><path d="M500.552 989.624c-257.414 0-466.836-209.422-466.836-466.836 0-257.412 209.422-466.832 466.836-466.832 257.412 0 466.834 209.42 466.834 466.832-0.002 257.414-209.422 466.836-466.834 466.836z m0-908.77c-243.688 0-441.938 198.248-441.938 441.934 0 243.684 198.25 441.938 441.938 441.938 243.684 0 441.934-198.254 441.934-441.938-0.002-243.686-198.252-441.934-441.934-441.934z" p-id="2093"></path><path d="M481.748 651.058v-49.042c0-16.48 2.218-30.346 6.668-41.592 4.444-11.242 13.208-24.33 26.288-39.238 3.662-4.182 8.888-9.808 15.7-16.872 35.564-37.67 53.362-75.728 53.362-114.18 0-22.23-5.17-39.494-15.502-51.792-10.338-12.292-24.916-18.442-43.75-18.442-20.402 0-35.446 7.324-45.122 21.97-9.68 14.654-14.516 37.408-14.516 68.272v16.088h-99.268a74.788 74.788 0 0 1-0.98-9.416c-0.136-3.14-0.198-8.106-0.198-14.908 0-46.038 13.142-80.83 39.432-104.372 26.29-23.54 65.194-35.31 116.728-35.31 52.836 0 94.954 11.772 126.344 35.31 31.388 23.542 47.086 54.932 47.086 94.17 0 25.112-5.24 47.87-15.698 68.272-10.468 20.402-32.312 46.042-65.53 76.908-1.564 1.568-3.792 3.664-6.666 6.276-32.442 30.868-48.654 60.426-48.654 88.674 0 3.4 0.39 9.026 1.18 16.872 0.256 1.046 0.388 1.832 0.388 2.352h-77.292z m-20.014 94.17c0-20.66 5.428-37.08 16.284-49.242 10.848-12.164 25.308-18.244 43.36-18.244 18.304 0 32.89 6.08 43.744 18.244 10.85 12.166 16.286 28.582 16.286 49.242 0 20.93-5.436 37.538-16.286 49.83-10.854 12.292-25.442 18.444-43.744 18.444-18.314 0-32.832-6.152-43.556-18.444-10.732-12.292-16.088-28.9-16.088-49.83z" fill="#FFFFFF" p-id="2094"></path><path d="M333.964 896.316c-1.77 0-3.57-0.38-5.28-1.184-84.56-39.684-153.784-107.744-194.918-191.648a12.452 12.452 0 0 1 5.7-16.658c6.17-3.038 13.63-0.478 16.658 5.696 38.646 78.84 103.686 142.79 183.134 180.072a12.444 12.444 0 0 1 5.982 16.554 12.436 12.436 0 0 1-11.276 7.168zM901.794 535.208a12.448 12.448 0 0 1-12.45-12.45c0-52.904-10.5-104.164-31.208-152.36a12.454 12.454 0 0 1 6.522-16.354 12.454 12.454 0 0 1 16.352 6.526c22.05 51.316 33.232 105.884 33.232 162.188a12.446 12.446 0 0 1-12.448 12.45zM823.526 297.918a12.44 12.44 0 0 1-10.01-5.034c-39.534-53.29-92.316-95.744-152.65-122.774a12.452 12.452 0 0 1-6.276-16.452 12.456 12.456 0 0 1 16.452-6.27c64.22 28.768 120.398 73.95 162.468 130.66a12.446 12.446 0 0 1-2.58 17.416 12.374 12.374 0 0 1-7.404 2.454z" p-id="2095"></path><path d="M31.506 50.156a13.708 13.708 0 0 1-13.694-13.696c0-7.55 6.142-13.694 13.694-13.694S45.2 28.91 45.2 36.46a13.708 13.708 0 0 1-13.694 13.696z m0-24.898a11.22 11.22 0 0 0-11.204 11.204c0 6.178 5.028 11.206 11.204 11.206s11.204-5.028 11.204-11.206a11.216 11.216 0 0 0-11.204-11.204z" fill="#F18D00" p-id="2096"></path><path d="M120.98 78.628m-37.348 0a37.348 37.348 0 1 0 74.696 0 37.348 37.348 0 1 0-74.696 0Z" fill="#36B8F2" p-id="2097"></path><path d="M106.718 130.914c-24.71 0-44.816-20.104-44.816-44.816 0-24.708 20.104-44.816 44.816-44.816 24.712 0 44.818 20.108 44.818 44.816 0 24.712-20.106 44.816-44.818 44.816z m0-74.694c-16.474 0-29.876 13.404-29.876 29.876 0 16.476 13.402 29.878 29.876 29.878 16.474 0 29.878-13.402 29.878-29.878 0-16.47-13.402-29.876-29.878-29.876zM22.504 116.614a4.946 4.946 0 0 1-3.346-1.294L1.894 99.638a4.982 4.982 0 0 1 6.696-7.372l17.264 15.68a4.984 4.984 0 0 1-3.35 8.668z" p-id="2098"></path><path d="M6.036 117.406a4.984 4.984 0 0 1-3.686-8.33l15.68-17.264a4.98 4.98 0 1 1 7.37 6.696l-15.68 17.264a4.948 4.948 0 0 1-3.684 1.634z" p-id="2099"></path><path d="M906.476 956.542h-62.244a7.47 7.47 0 1 1 0-14.936h62.244a7.466 7.466 0 0 1 7.468 7.468 7.462 7.462 0 0 1-7.468 7.468z" fill="#E81F1F" p-id="2100"></path><path d="M875.354 987.664a7.47 7.47 0 0 1-7.47-7.468v-62.244a7.468 7.468 0 1 1 14.938 0v62.244a7.464 7.464 0 0 1-7.468 7.468z" fill="#E81F1F" p-id="2101"></path><path d="M917.18 919.198a13.712 13.712 0 0 1-13.694-13.696c0-7.546 6.142-13.694 13.694-13.694 7.546 0 13.694 6.146 13.694 13.694 0 7.55-6.146 13.696-13.694 13.696z m0-19.918a6.228 6.228 0 0 0-6.224 6.222c0 3.436 2.792 6.224 6.224 6.224s6.224-2.79 6.224-6.224a6.226 6.226 0 0 0-6.224-6.222z" fill="#F18D00" p-id="2102"></path><path d="M1003.508 768.126m-20.228 0a20.228 20.228 0 1 0 40.456 0 20.228 20.228 0 1 0-40.456 0Z" fill="#58B530" p-id="2103"></path><path d="M983.276 854.69a4.97 4.97 0 0 1-3.346-1.292l-20.136-18.29a4.982 4.982 0 0 1 6.696-7.374l20.134 18.292a4.978 4.978 0 0 1-3.348 8.664z" fill="#36B8F2" p-id="2104"></path><path d="M964.064 855.614a4.976 4.976 0 0 1-3.688-8.326l18.29-20.136a4.98 4.98 0 1 1 7.372 6.694l-18.286 20.138a4.956 4.956 0 0 1-3.688 1.63z" fill="#36B8F2" p-id="2105"></path></svg>