<?xml version="1.0" standalone="no"?><!DOCTYPE svg PUBLIC "-//W3C//DTD SVG 1.1//EN" "http://www.w3.org/Graphics/SVG/1.1/DTD/svg11.dtd"><svg t="1628490004198" class="icon" viewBox="0 0 1024 1024" version="1.1" xmlns="http://www.w3.org/2000/svg" p-id="7614" xmlns:xlink="http://www.w3.org/1999/xlink" width="200" height="200"><defs><style type="text/css"></style></defs><path d="M358.4 546.133333l307.2 0 0 51.2-307.2 0 0-51.2Z" fill="#108EE9" p-id="7615"></path><path d="M402.090667 187.733333H229.034667C187.511467 187.733333 153.6 218.231467 153.6 255.829333v614.741334c0 37.546667 33.7408 68.096 75.349333 68.096h566.101334C836.778667 938.666667 870.4 908.168533 870.4 870.570667V255.829333c0-37.546667-33.774933-68.096-75.434667-68.096h-167.287466a51.2 51.2 0 0 0 51.2 51.2h116.104533c14.4384 0 24.2176 8.823467 24.2176 16.896v614.741334c0 8.157867-9.659733 16.896-24.149333 16.896h-566.101334c-14.404267 0-24.149333-8.823467-24.149333-16.896V255.829333c0-8.021333 9.8304-16.896 24.234667-16.896h121.856a51.2 51.2 0 0 0 51.2-51.2z" fill="#108EE9" p-id="7616"></path><path d="M358.4 426.666667l307.2 0 0 51.2-307.2 0 0-51.2Z" fill="#108EE9" p-id="7617"></path><path d="M443.733333 187.733333l136.533334 0 0 51.2-136.533334 0 0-51.2Z" fill="#108EE9" p-id="7618"></path><path d="M358.4 665.6l307.2 0 0 51.2-307.2 0 0-51.2Z" fill="#108EE9" p-id="7619"></path></svg>